<?xml version="1.0" standalone="no"?>
<!DOCTYPE svg PUBLIC "-//W3C//DTD SVG 20010904//EN"
 "http://www.w3.org/TR/2001/REC-SVG-20010904/DTD/svg10.dtd">
<svg version="1.0" xmlns="http://www.w3.org/2000/svg"
 width="392.000000pt" height="392.000000pt" viewBox="0 0 392.000000 392.000000"
 preserveAspectRatio="xMidYMid meet">
<metadata>
Created by potrace 1.11, written by Peter Selinger 2001-2013
</metadata>
<g transform="translate(0.000000,392.000000) scale(0.100000,-0.100000)"
fill="#000000" stroke="none">
<path d="M2828 3075 c-2 -1 -48 -5 -103 -9 -260 -16 -494 -125 -688 -319 l-89
-89 -71 69 c-122 115 -219 180 -352 233 -473 190 -997 42 -1305 -369 -132
-176 -207 -407 -208 -643 -1 -108 4 -153 34 -297 10 -47 71 -190 113 -264 56
-98 161 -219 254 -296 42 -33 79 -61 83 -61 4 0 15 -6 23 -14 31 -27 153 -86
239 -115 276 -92 563 -73 827 54 126 61 232 138 324 236 l64 68 83 -78 c46
-43 111 -97 146 -120 105 -70 268 -141 357 -156 19 -3 37 -8 41 -10 12 -8 128
-19 200 -19 303 0 565 103 773 303 171 164 271 348 323 591 23 110 23 281 -2
420 -10 59 -55 192 -84 252 -30 61 -81 150 -90 158 -3 3 -24 30 -47 61 -154
202 -432 363 -689 398 -93 13 -152 19 -156 16z"/>
</g>
</svg>
